<svg width="87" height="64" viewBox="0 0 87 64" fill="none" xmlns="http://www.w3.org/2000/svg">
<path fill-rule="evenodd" clip-rule="evenodd" d="M1.05 17.2402H1.86465H80.9692L78.145 5.72001C78.0473 5.324 77.6309 5 77.2218 5H76.3528C75.94 5 75.3716 5.2412 75.0856 5.53281L72.7647 7.92684C72.4823 8.22204 71.9102 8.45965 71.5011 8.45965H8.7041C8.29135 8.45965 7.77721 8.17884 7.55635 7.83684L6.36877 5.99361C6.14791 5.65161 5.73153 5.60481 5.43825 5.89641L3.38533 7.93764C3.09568 8.22564 2.52361 8.45965 2.11085 8.45965H0.745859C0.333102 8.45965 0 8.79445 0 9.20486V16.4986C0 16.9054 0.333102 17.2402 0.745859 17.2402H1.05ZM43.7617 36.4349H36.2994C33.3269 36.4349 30.8902 34.0157 30.8902 31.0564C30.8902 28.0972 33.3269 25.678 36.2994 25.678H41.4155C42.1215 26.2468 42.7406 26.9776 42.9325 27.8776C43.3996 30.1024 41.0715 32.6404 41.0715 32.6404C40.7963 32.9429 40.7275 33.1805 40.9194 33.1733L41.0932 33.1373C43.5625 32.6224 45.1122 30.0628 44.5546 27.4132C44.4206 26.776 44.1744 26.2 43.8485 25.6852C46.7813 25.732 49.1709 28.126 49.1709 31.0564C49.1709 34.0157 46.7379 36.4349 43.7617 36.4349ZM85.5841 49.3951C85.3958 49.0351 85.0591 48.4555 84.8418 48.1099C84.8418 48.1099 78.4007 37.9793 75.1674 32.1688C71.9341 26.3584 75.6381 24.2523 75.6381 24.2523C75.9929 24.0507 76.5541 23.6871 76.8836 23.4423L81.0329 20.3715C81.3624 20.1267 81.5543 19.6047 81.4565 19.2087L81.232 18.2871H2.66699V25.6168C2.66699 26.0236 3.00371 26.3584 3.41285 26.3584H24.6771C25.0898 26.3584 25.5569 26.6644 25.7162 27.0388L29.8583 36.6797C30.0176 37.0541 30.4846 37.3637 30.8974 37.3637H48.6785C52.9075 37.3637 54.0009 40.1321 54.0009 40.1321C54.153 40.5138 54.3956 41.1366 54.544 41.5146L61.0938 58.3088C61.2423 58.6904 61.6985 59 62.1076 59H84.1213C89.5922 57.0236 85.5841 49.3951 85.5841 49.3951Z" fill="white"/>
</svg>
