<svg width="99" height="64" viewBox="0 0 99 64" fill="none" xmlns="http://www.w3.org/2000/svg">
<path   d="M94.8042 17.3225C94.5041 17.0941 93.9999 16.7275 93.6877 16.5052C93.6877 16.5052 86.7368 11.5716 86.0525 11.2051C85.3742 10.8445 84.0296 11.2411 84.0296 11.2411C83.6635 11.3493 83.2073 11.169 83.0092 10.8445C83.0092 10.8445 82.1809 9.47441 81.3645 9.01771C80.5422 8.561 75.9442 6.87241 75.53 6.74021C75.1219 6.602 74.6657 6.74021 74.2575 6.83035C73.8493 6.92049 72.985 7.37719 72.3427 7.74375L71.7064 8.1043C71.4543 8.03219 71.0702 7.7137 70.8541 7.40723L70.1097 6.02511C69.8096 5.79075 69.2634 5.53836 68.8912 5.46625C68.8912 5.46625 64.4673 4.59491 63.1408 4.68505C61.8202 4.77519 60.9559 6.55392 60.1395 6.55392C59.3172 6.55392 58.4948 4 56.538 4C54.5812 4 51.2077 4.13821 50.8896 4.3245C50.5715 4.50478 50.0732 4.82326 49.7971 5.46024C49.527 6.09722 48.4285 6.92049 47.6122 6.87241C46.7898 6.83035 45.3793 5.18983 44.695 5.18983C44.0107 5.18983 38.9625 7.13081 38.9625 7.13081C38.6084 7.26301 38.1942 7.65962 38.0381 8.00816L37.2878 9.14991C37.2518 9.52849 37.1738 10.1474 37.1077 10.52L36.7056 12.8997C36.6395 13.2722 36.2854 13.6508 35.9192 13.741L20.0425 17.6109C19.6703 17.701 19.3702 18.0856 19.3702 18.4642V18.7887C19.3702 19.1733 19.0581 19.4798 18.6799 19.4798L8.58364 19.4197C8.20548 19.4197 7.65925 19.2094 7.37113 18.963L5.04214 16.9499C4.76002 16.6975 4.37586 16.5593 4.20178 16.6434C4.02771 16.7215 3.88965 16.7456 3.89565 16.7035V16.6554C3.89565 15.5798 3.02528 14.7084 1.95083 14.7084C0.876372 14.7084 0 15.5798 0 16.6554C0 17.2864 0.324138 17.671 0.324138 17.671C0.570242 17.9594 0.750318 18.2058 0.732311 18.2118C0.714303 18.2238 0.696295 18.4582 0.696295 18.7286V19.9245V40.9748C0.696295 41.3594 0.714303 41.9783 0.738313 42.3569L2.33499 43.5227C2.5871 43.8051 3.07931 44.1597 3.42745 44.3039L38.6864 58.8222C39.0346 58.9664 39.6108 59.2068 39.959 59.351L43.4704 59.8678C43.8426 59.9399 44.4609 60 44.839 60H66.7363C67.1145 60 67.4266 59.6875 67.4266 59.3089V58.2032C67.4266 57.8247 67.1145 57.5122 66.7363 57.5122H44.9291C44.5509 57.5122 43.9326 57.5182 43.5485 57.5302L40.8053 57.0975C40.4272 57.0495 39.8329 56.8872 39.4848 56.737L22.9417 49.5139C22.5936 49.3637 22.3115 48.925 22.3115 48.5464V45.7581C22.3115 45.3735 22.0714 44.8688 21.7772 44.6284L20.2466 43.3604C19.9525 43.1201 19.7124 42.6093 19.7124 42.2307L19.7064 40.9327C19.7064 40.5541 20.0065 40.3198 20.3726 40.4099L35.9192 44.1957C36.2854 44.2859 36.6395 44.6644 36.7056 45.037L37.1077 47.4167C37.1738 47.7892 37.2518 48.4082 37.2878 48.7868L38.0381 49.9285C38.1942 50.2771 38.6084 50.6737 38.9625 50.8059C38.9625 50.8059 44.0107 52.7469 44.695 52.7469C45.3793 52.7469 46.7898 51.1063 47.6122 51.0583C48.4285 51.0162 49.527 51.8335 49.7971 52.4764C50.0732 53.1134 50.5715 53.4319 50.8896 53.6122C51.2077 53.7985 54.5812 53.9367 56.538 53.9367C58.4948 53.9367 59.3172 51.3828 60.1395 51.3828C60.9559 51.3828 61.8202 53.1615 63.1408 53.2516C64.4673 53.3418 68.8912 52.4704 68.8912 52.4704C69.2634 52.3983 69.8096 52.1459 70.1097 51.9116L70.8541 50.5295C71.0702 50.217 71.4543 49.9045 71.7064 49.8324L72.3427 50.1929C72.985 50.5595 73.8493 51.0162 74.2575 51.1063C74.6657 51.1965 75.1219 51.3347 75.53 51.1965C75.9442 51.0583 80.5422 49.3757 81.3645 48.919C82.1809 48.4623 83.0092 47.0922 83.0092 47.0922C83.2073 46.7677 83.6635 46.5874 84.0296 46.6956C84.0296 46.6956 85.3742 47.0922 86.0525 46.7316C86.7368 46.3651 93.6877 41.4315 93.6877 41.4315C93.9999 41.2091 94.5041 40.8426 94.8102 40.6202C94.8102 40.6202 99 37.5195 99 29.0044C99 20.4893 94.8042 17.3225 94.8042 17.3225Z" fill="white"/>
</svg>
