<svg width="199" height="64" viewBox="0 0 199 64" fill="none" xmlns="http://www.w3.org/2000/svg">
<path fill-rule="evenodd" clip-rule="evenodd" d="M115.996 44.2757C115.996 44.2757 113.009 46.6317 110.717 46.6317H104.714C103.99 46.6317 102.817 46.4911 102.116 46.3125C102.116 46.3125 100.823 45.9895 100.325 44.3213C99.8271 42.6531 98.3377 39.066 98.3377 39.066C98.1756 38.6784 98.3868 38.3592 98.8053 38.3592H106.09V38.9368C106.09 39.313 106.437 39.617 106.863 39.617H108.967C108.439 42.6949 106.573 45.2067 106.573 45.2067C106.335 45.4841 106.286 45.7615 106.463 45.8185L106.629 45.8299C108.703 45.9363 110.475 43.2573 110.92 39.617H111.595C112.018 39.617 112.364 39.313 112.364 38.9368V38.3592H113.005C113.424 38.3592 113.922 38.667 114.106 39.047L116.18 43.0293C116.369 43.4093 116.286 43.9679 115.996 44.2757ZM88.9753 18.911H37.5516C37.1293 18.911 36.7862 18.6716 36.7862 18.3828C36.7862 18.0902 37.1293 17.8546 37.5516 17.8546H88.9753C89.3976 17.8546 89.7407 18.0902 89.7407 18.3828C89.7407 18.6716 89.3976 18.911 88.9753 18.911ZM197.49 15.4303C197.109 12.2193 193.651 13.3479 193.651 13.3479C192.961 13.5759 191.845 13.9825 191.17 14.2523L189.798 14.8071C189.123 15.0769 188.629 15.8976 188.701 16.6234L188.829 17.9572C188.897 18.6868 188.361 19.2796 187.634 19.2796H151.669C150.942 19.2796 150.35 18.683 150.35 17.9496V17.144C150.35 16.4106 149.754 15.8141 149.03 15.8141H146.319C145.591 15.8141 144.999 15.2365 144.999 14.5297C144.999 13.8229 144.403 13.2453 143.679 13.2453H142.624C141.896 13.2453 141.304 12.6487 141.304 11.9153V11.2389C141.304 10.5055 140.708 9.90893 139.984 9.90893H131.791C131.067 9.90893 130.471 9.30853 130.471 8.57894V7.51496C130.471 6.78156 130.041 6.18497 129.517 6.18497C128.993 6.18497 128.559 5.69098 128.559 5.09059C128.559 4.49019 127.967 4 127.24 4H121.855C121.127 4 120.535 4.2888 120.535 4.64219C120.535 4.99559 119.989 5.28438 119.325 5.28438C118.658 5.28438 118.115 5.88478 118.115 6.61437V7.29456C118.115 8.02415 118.658 8.62454 119.325 8.62454C119.989 8.62454 120.535 8.85254 120.535 9.13754C120.535 9.41873 119.94 9.65053 119.216 9.65053H95.3514C94.6275 9.65053 94.0317 10.1977 94.0317 10.8703C94.0317 11.5429 94.4616 12.0901 94.9894 12.0901C95.5136 12.0901 95.9434 12.3789 95.9434 12.7323C95.9434 13.0857 95.3476 13.3745 94.6237 13.3745H91.528C90.8041 13.3745 90.2083 13.1123 90.2083 12.7969C90.2083 12.4777 89.6163 12.2193 88.8886 12.2193H81.7206C80.9929 12.2193 80.3971 12.4511 80.3971 12.7323C80.3971 13.0135 79.8052 13.2453 79.0774 13.2453H48.2074C47.4834 13.2453 46.8876 12.6487 46.8876 11.9153V10.7221C46.8876 9.99252 46.2957 9.39213 45.5679 9.39213H41.0734C40.3494 9.39213 39.7536 9.79873 39.7536 10.2927C39.7536 10.7867 39.1617 11.1895 38.4339 11.1895H28.4606C27.7329 11.1895 27.1409 11.7899 27.1409 12.5195V15.3809C27.1409 16.1142 26.5942 16.7108 25.9305 16.7108C25.2631 16.7108 24.7202 16.194 24.7202 15.5557C24.7202 14.9211 24.2866 13.9901 23.7624 13.4885L16.1232 6.20017C15.5953 5.69478 15.1654 5.88478 15.1654 6.61437V18.8502C15.1654 19.5798 14.5697 20.1802 13.8457 20.1802H6.28939C5.56543 20.1802 4.96968 20.032 4.96968 19.8496C4.96968 19.671 4.37769 19.5228 3.64996 19.5228H1.31972C0.595758 19.5228 0 20.1194 0 20.8528V22.7186C0 23.4482 0.595758 24.0485 1.31972 24.0485H3.64996C4.37769 24.0485 4.96968 23.8851 4.96968 23.6876C4.96968 23.4862 5.56543 23.319 6.28939 23.3114L13.8457 23.243C14.5697 23.2354 15.1617 23.8281 15.1579 24.5577L15.1541 25.1429C15.1503 25.8725 15.7423 26.4729 16.4663 26.4729H28.3701C29.0941 26.4729 29.6899 27.0505 29.6899 27.7535C29.6899 28.4603 29.0941 29.0379 28.3701 29.0379H14.6979C13.9739 29.0379 13.3782 29.6383 13.3782 30.3679V37.7246C13.3782 38.458 13.9739 39.0546 14.6979 39.0546H42.3855C43.1095 39.0546 43.7052 39.4612 43.7052 39.9551C43.7052 40.4491 44.2972 40.8519 45.025 40.8519H80.2275C80.9514 40.8519 81.5472 40.2553 81.5472 39.522V38.7164C81.5472 37.983 82.0336 37.3864 82.6293 37.3864C83.2251 37.3864 83.7115 37.983 83.7115 38.7164V38.8798C83.7115 39.6132 84.3073 40.2097 85.0312 40.2097H86.4678C87.1956 40.2097 87.7876 39.7766 87.7876 39.2484C87.7876 38.7164 88.3833 38.2832 89.1073 38.2832H95.3891C96.1131 38.2832 96.9389 38.838 97.2179 39.5106C97.2179 39.5106 99.0014 43.8045 99.4991 45.4765C99.9968 47.1447 101.286 47.4677 101.286 47.4677C101.991 47.6424 103.164 47.7868 103.888 47.7868H110.852C113.145 47.7868 116.297 45.3777 116.297 45.3777C116.874 44.9369 117.666 45.0813 118.058 45.6969L127.341 60.4027C127.733 61.0221 128.54 61.1855 129.14 60.7713C129.14 60.7713 133.785 57.5451 136.843 54.9764C139.901 52.4076 137.296 49.2004 137.296 49.2004C136.836 48.6342 136.112 47.688 135.682 47.0953L131.761 41.6689C131.331 41.0799 130.984 39.9969 130.984 39.2674V35.7638C130.984 35.0304 131.327 34.4338 131.745 34.4338C132.168 34.4338 132.511 33.9132 132.511 33.2748C132.511 32.6402 133.107 32.1196 133.831 32.1196H143.551C144.275 32.1196 144.871 31.5231 144.871 30.7897V27.0315C144.871 26.2981 145.463 25.7015 146.191 25.7015H188.399C189.127 25.7015 189.866 26.2829 190.043 26.9897C190.043 26.9897 193.67 41.4941 195.454 44.7051C197.237 47.916 198.893 44.7051 198.893 44.7051C199.402 43.0369 197.875 18.6374 197.49 15.4303Z" fill="white"/>
</svg>
