<svg width="62" height="64" viewBox="0 0 62 64" fill="none" xmlns="http://www.w3.org/2000/svg">
<path   d="M56.6624 38.0804C56.1628 38.2898 53.9133 38.6464 53.1018 38.9126C52.2903 39.1814 51.0096 39.5691 50.3528 39.3597C50.0738 39.2719 50.6444 38.7705 51.0806 38.6206C51.5193 38.4733 55.2042 37.729 55.3589 37.6101C55.5161 37.4886 56.2338 37.4602 56.2338 36.6254C56.2338 35.7932 56.5685 35.7002 56.7562 35.8785C56.9439 36.0568 57.0377 36.8012 57.0047 37.0079C56.9743 37.2172 57.162 37.8711 56.6624 38.0804ZM14.9121 53.2201C14.9476 53.2537 14.9425 53.3028 14.8969 53.3286C14.8969 53.3286 12.7514 54.5459 12.4015 54.9051C12.0515 55.2618 10.4538 56.1922 9.83755 56.0785C9.2213 55.9622 7.89751 55.3936 8.04713 55.1687C8.19422 54.9439 9.07929 55.1351 9.92124 55.1817C10.7632 55.2282 12.2239 54.091 13.0481 53.401C13.8698 52.7109 14.9121 53.2201 14.9121 53.2201ZM5.32093 51.5454C5.19666 51.8322 5.07493 51.9434 4.88473 51.9821C4.34964 52.0855 3.82215 52.101 3.97684 51.6229C4.13408 51.1474 4.60324 50.9975 4.88473 51.0595C5.1637 51.1189 5.44519 51.2611 5.32093 51.5454ZM61.7065 35.4753C61.4909 34.594 58.6126 32.3301 57.8644 31.9036C57.1189 31.4798 57.55 31.8028 57.5373 30.7872C57.5246 29.7741 54.4003 27.3033 52.5718 29.358C51.4915 30.5752 50.6977 31.3687 49.0112 33.4233C47.3248 35.4753 41.4134 37.9848 41.4134 37.9848C41.3677 38.0055 41.2891 38.0365 41.2435 38.0572L18.2977 48.1184C18.252 48.1391 18.1734 48.1701 18.1252 48.1856L18.0821 48.2011C12.1453 50.2402 5.23978 49.4054 2.82296 49.3615C0.38586 49.3176 -0.0807653 51.6823 0.0105309 52.7988C0.104363 53.9153 3.38342 54.9439 3.80693 55.4349C4.22791 55.926 3.89823 55.5435 4.41557 56.8615C5.15862 58.7663 7.95584 58.9188 8.86626 58.7818C9.77415 58.6448 12.0515 57.3087 12.6601 56.952C13.2688 56.5953 16.5022 54.4063 18.2114 53.5147C19.9233 52.6205 40.7667 44.0918 44.6544 42.6652C48.5421 41.236 58.0065 39.7164 60.3472 39.3597C62.6905 39.0031 61.922 36.3566 61.7065 35.4753ZM56.5685 53.8858C56.1678 54.5785 55.1636 53.3508 55.1636 53.3508C56.3251 52.7099 56.8627 53.3793 56.5685 53.8858ZM48.4761 54.7826C49.0899 55.3745 50.5683 56.8062 51.4128 56.8372C52.2548 56.8657 53.1652 56.8631 53.2895 57.1009C53.4137 57.3386 52.0392 57.7857 51.4154 57.8452C50.7915 57.9046 49.2927 56.8321 48.9808 56.4444C48.6663 56.0593 46.6502 54.6534 46.6502 54.6534C46.2216 54.3252 46.1024 54.1288 46.143 54.0977C46.143 54.0977 47.865 54.1908 48.4761 54.7826ZM59.5052 52.0845C58.9879 51.4151 57.2558 50.7018 53.1804 50.6553C49.1051 50.6113 44.6087 49.4509 43.3889 49.0478C42.1716 48.6472 37.3355 46.0136 37.3355 46.0136C37.2898 45.9878 37.2137 45.9826 37.1656 46.0033L31.0411 48.4352C30.9955 48.4533 30.9929 48.4869 31.0386 48.5128C31.0386 48.5128 39.0321 52.7099 41.3753 53.5576C43.7186 54.4079 46.7162 56.907 48.7779 58.6774C50.8372 60.4451 52.1965 60.0781 53.9286 59.631C54.7629 59.4165 55.7545 57.1396 56.599 56.8166C57.5373 56.4599 57.7681 57.0621 58.6151 56.5064C61.6583 54.4958 60.02 52.7538 59.5052 52.0845ZM12.6064 37.8052C11.9495 38.0145 10.6689 37.6269 9.85734 37.3581C9.04581 37.0919 7.1007 36.8283 6.6011 36.6215C6.10151 36.4122 6.10151 36.0685 6.06347 35.4301C6.05079 35.2208 6.28917 34.5023 6.47684 34.3214C6.6645 34.1431 6.92064 34.2387 6.92064 35.0709C6.92064 35.9056 7.36698 35.9341 7.52421 36.053C7.67891 36.1718 11.3637 36.9162 11.8025 37.0661C12.2386 37.2134 12.8853 37.7173 12.6064 37.8052ZM13.816 33.0033C11.4677 31.2588 11.4271 28.5374 8.61723 27.7957C8.25458 27.6975 6.69494 28.2712 5.99246 28.7183C5.28999 29.1628 4.39985 30.3698 3.88504 30.8608C3.37023 31.3519 3.13438 31.0831 2.80724 31.127C2.48009 31.1735 0.27884 33.0938 0.0328478 34.4764C-0.213145 35.8617 1.02696 37.1565 1.40229 37.4692C1.77762 37.7819 2.05912 38.0042 6.97643 38.6736C11.8963 39.3429 24.2872 45.1243 24.2872 45.1243C24.3329 45.145 24.4089 45.145 24.4571 45.1243L30.5004 42.4339C30.5486 42.4133 30.5486 42.3771 30.503 42.3538C30.503 42.3538 17.4222 35.6834 13.816 33.0033ZM40.6523 24.2568H36.6682C36.6682 24.2568 32.778 23.2618 33.1559 19.7961C33.5363 16.3278 37.4899 16.3588 37.4899 16.3588C37.4899 16.3588 41.6337 15.5162 41.8544 21.3028C41.8544 21.3028 42.2652 24.2568 40.6523 24.2568ZM33.0367 27.7846H31.8295C31.723 27.7846 31.5633 27.7458 31.4694 27.6993C31.4694 27.6993 30.9064 27.4227 30.9064 27.1798C30.9064 27.4227 30.3409 27.6993 30.3409 27.6993C30.2471 27.7458 30.0873 27.7846 29.9833 27.7846H28.7737C28.231 27.7846 28.0534 27.5726 28.0534 27.0299C28.0534 25.7635 30.7872 22.4684 30.7872 22.4684C30.8532 22.3909 30.9572 22.3909 31.0231 22.4684C31.0231 22.4684 33.7569 25.7635 33.7569 27.0299C33.7569 27.5726 33.5794 27.7846 33.0367 27.7846ZM25.1751 24.2568H21.191C19.5781 24.2568 19.9889 21.3028 19.9889 21.3028C20.2096 15.5162 24.3534 16.3588 24.3534 16.3588C24.3534 16.3588 28.307 16.3278 28.6874 19.7961C29.0653 23.2618 25.1751 24.2568 25.1751 24.2568ZM45.5899 24.6005L44.3168 23.1894C44.2509 23.1119 44.1545 22.9801 44.1063 22.8922C44.1063 22.8922 43.9415 22.6002 44.0353 22.0264C44.1317 21.4527 44.8266 17.6226 44.8266 17.6226C44.8443 17.5244 44.8748 17.3641 44.8951 17.2659C44.8951 17.2659 47.5401 4 31.0003 4C14.4604 4 17.1055 17.2659 17.1055 17.2659C17.1258 17.3641 17.1562 17.5244 17.174 17.6226C17.174 17.6226 17.8688 21.4527 17.9652 22.0264C18.059 22.6002 17.8942 22.8922 17.8942 22.8922C17.846 22.9801 17.7496 23.1119 17.6837 23.1894L16.4106 24.6005C16.3447 24.6781 16.2889 24.8202 16.2889 24.921V25.4327C16.2889 25.5309 16.3371 25.6808 16.3954 25.7635C16.3954 25.7635 16.6363 26.0943 16.8899 26.4277C17.141 26.7585 17.0472 27.4227 17.0472 27.9345C17.0472 28.4462 17.5214 28.7408 17.5214 28.7408C17.6076 28.7951 17.7572 28.8752 17.8511 28.9191C17.8511 28.9191 20.7776 30.2863 22.2029 30.8885C23.6256 31.4907 23.6256 33.8115 23.6256 33.8115C23.6256 33.9123 23.6636 34.0673 23.7093 34.1552C23.7093 34.1552 24.3078 35.3208 31.0256 35.3208C37.7435 35.3208 38.2964 34.1578 38.2964 34.1578C38.3395 34.0673 38.375 33.9123 38.375 33.8115C38.375 33.8115 38.375 31.4907 39.7977 30.8885C41.2204 30.2863 44.1495 28.9191 44.1495 28.9191C44.2433 28.8752 44.3929 28.7951 44.4791 28.7408C44.4791 28.7408 44.9534 28.4462 44.9534 27.9345C44.9534 27.4227 44.8595 26.7585 45.1106 26.4277C45.3642 26.0943 45.6051 25.7635 45.6051 25.7635C45.6635 25.6808 45.7116 25.5309 45.7116 25.4327V24.921C45.7116 24.8202 45.6559 24.6781 45.5899 24.6005Z" fill="white"/>
</svg>
