<svg width="220" height="64" viewBox="0 0 220 64" fill="none" xmlns="http://www.w3.org/2000/svg">
<path   d="M144.396 18.8829C144.396 19.4951 143.894 20.0006 143.281 20.0099L141.167 20.0377C140.554 20.0423 139.792 19.6249 139.471 19.1009L136.456 14.1615C136.14 13.6421 135.378 13.1505 134.774 13.0716L106.918 9.51905C106.31 9.4402 105.524 9.78804 105.176 10.2936L102.105 14.7181C101.757 15.219 100.967 15.6364 100.354 15.6364L89.1387 15.7059C88.5255 15.7106 88.0237 16.2161 88.0237 16.8283V29.9117C88.0237 30.5239 87.522 31.0248 86.9087 31.0248L62.3836 30.997C62.3836 20.3995 55.1362 19.4441 55.1362 19.4441C54.5322 19.3652 53.5334 19.3003 52.9202 19.3003H51.8284C51.2152 19.3003 50.7134 18.7994 50.7134 18.1872V10.4837C50.7134 7.95609 52.0235 6.67604 54.2767 6.67604C56.5346 6.67604 136.544 6.6714 139.676 6.6714C143.299 6.6714 144.396 7.47375 144.396 11.3788V18.8829ZM130.853 30.779C130.853 31.1361 130.561 31.4329 130.198 31.4329H117C116.642 31.4329 116.344 31.1361 116.344 30.779V29.0351C116.344 28.678 116.642 28.3812 117 28.3812H130.198C130.561 28.3812 130.853 28.678 130.853 29.0351V30.779ZM130.853 43.1945C130.853 43.5516 130.561 43.8485 130.198 43.8485H117C116.642 43.8485 116.344 43.5516 116.344 43.1945V39.3126C116.344 38.9555 116.642 38.6587 117 38.6587H130.198C130.561 38.6587 130.853 38.9555 130.853 39.3126V43.1945ZM97.5987 45.6016C97.4222 46.8631 96.7671 47.9761 95.7543 48.746C95.6335 48.8341 95.4895 48.8805 95.3501 48.8805C95.1457 48.8805 94.946 48.7878 94.8159 48.6162C94.5929 48.3193 94.6486 47.9019 94.946 47.6793C95.6753 47.1274 96.1492 46.3251 96.2747 45.416C96.4001 44.5117 96.1678 43.6073 95.6103 42.8745C94.4674 41.3718 92.3072 41.0704 90.8019 42.2113C90.5092 42.4293 90.0865 42.3736 89.8635 42.0814C89.6405 41.7892 89.7009 41.3672 89.9935 41.1492C92.0934 39.5631 95.09 39.9805 96.6788 42.0722C97.4454 43.0878 97.7752 44.3401 97.5987 45.6016ZM88.0237 41.5805C88.0237 42.1927 87.8379 42.6797 87.6056 42.6658C87.378 42.6519 87.0017 42.6101 86.9645 42.6055C86.9273 42.5962 86.4024 42.522 85.7938 42.4385C85.7938 42.4385 70.9783 40.3932 68.688 40.3932C64.674 40.3932 60.2373 43.9319 57.1153 49.6319C55.4242 52.716 54.5044 52.7021 50.0351 52.6604C49.552 52.6557 49.0456 52.6465 48.5206 52.6465C47.5032 52.6465 46.8017 49.8916 46.8017 49.8916C46.6483 49.2979 47.0293 48.8156 47.6425 48.8156H52.9202C53.5334 48.8156 54.523 48.7043 55.1223 48.5744C55.1223 48.5744 62.4208 46.9744 62.4208 37.0865H86.9087C87.522 37.0865 88.0237 37.5873 88.0237 38.1995V41.5805ZM43.5914 41.6687C42.6762 41.5898 41.7935 41.9145 41.1059 42.522C40.4137 43.1249 40.0049 43.9644 39.9445 44.8734C39.9212 45.2444 39.5821 45.4949 39.2383 45.4995C38.8667 45.4763 38.5879 45.161 38.6111 44.7946C38.6901 43.5238 39.2616 42.3597 40.2186 41.5202C41.1756 40.6762 42.416 40.2588 43.675 40.3376C44.948 40.4164 46.1094 40.9869 46.955 41.9423C47.7959 42.8977 48.2186 44.1221 48.135 45.3882C48.1164 45.7453 47.8191 46.0143 47.4707 46.0143H47.4288C47.0572 45.9911 46.7784 45.6758 46.8017 45.3094C46.8621 44.3911 46.5554 43.5099 45.9515 42.8235C45.3429 42.1371 44.5066 41.729 43.5914 41.6687ZM215.662 27.9221C215.578 27.3191 215.225 26.6188 214.872 26.3684C214.519 26.1179 213.748 26.0345 213.153 26.1829L167.016 37.7868C166.421 37.9352 165.525 38.3433 165.023 38.6958L164.043 39.3776C163.541 39.73 162.63 39.9898 162.017 39.9573L161.622 39.9341C161.014 39.9016 160.015 39.7903 159.411 39.6883L151.104 38.2691C150.5 38.1671 149.985 38.0836 149.957 38.079C149.929 38.079 149.906 37.5781 149.906 36.9659V21.0395C149.906 20.4273 149.409 19.931 148.795 19.9403L148.182 19.9449C147.569 19.9542 147.067 19.4626 147.067 18.8504V11.3603C147.067 5.74847 144.916 4 139.676 4C134.5 4 59.1827 4.00928 54.4486 4.00464C50.4811 4 48.0421 6.35603 48.0421 10.4837V18.1872C48.0421 18.7994 47.5403 19.3003 46.9271 19.3003H32.5716C31.9584 19.3003 31.4566 19.8012 31.4566 20.4134V30.8996C31.4566 31.5118 30.9549 32.0126 30.3416 32.0126H1.11499C0.501745 32.0126 0 32.5135 0 33.1257V34.9855C0 35.5977 0.501745 36.0986 1.11499 36.0986H30.3416C30.9549 36.0986 31.4566 36.5995 31.4566 37.2117V47.7025C31.4566 48.3147 31.9584 48.8156 32.5716 48.8156H38.6576C39.2708 48.8156 39.8934 49.2979 40.042 49.8916C40.042 49.8916 42.4346 59.3203 48.5206 59.3203C49.0223 59.3203 49.5055 59.325 49.9654 59.3296C50.3836 59.3343 50.797 59.3389 51.2105 59.3389C55.5776 59.3389 59.6751 58.8566 62.9783 52.832C65.5567 48.1199 68.1816 47.0718 68.688 47.0625C69.9098 47.0625 84.8088 49.0429 84.8088 49.0429C85.4174 49.1217 86.2258 49.233 86.6114 49.284C86.997 49.335 88.0237 49.9009 88.0237 50.5131V51.1206C88.0237 51.7328 88.5255 52.2337 89.1387 52.2337H100.186C100.8 52.2337 101.622 52.6186 102.008 53.0917L104.688 56.3707C105.078 56.8484 105.896 57.2148 106.509 57.1916L134.932 56.1109C135.541 56.0878 136.28 55.624 136.563 55.0813L138.556 51.3061C138.844 50.7635 139.336 50.7496 139.648 51.2737L144.563 59.478C144.879 60.0021 145.557 60.1598 146.068 59.8212L160.721 50.2255C161.232 49.8916 162.152 49.669 162.761 49.7293L218.366 55.4385C218.975 55.5034 219.407 55.0582 219.323 54.4506L215.662 27.9221Z" fill="white"/>
</svg>
